PathFileType	4	(X/Y/Z)	E:\Qualisys_Data\Carbon_Farble_Plate\Data\Amateur_Runner\S2\T1\S2T1V11_c3d.trc
DataRate	CameraRate	NumFrames	NumMarkers	Units	OrigDataRate	OrigDataStartFrame	OrigNumFrames
200.000000	200.000000	4	39	mm	200.000000	164	328
Frame#	Time	LSHO			RSHO			LICST			RICST			LASIS			LHEEL			RASIS			LTROC			RTROC			SACR			LTH1			LSK4			LTH2			LTH3			RHM5			LSK2			LTH4			RTH1			LTOE			RTH2			RTH3			RTH4			LLEP			RLEP			LSK1			LSK3			RSK1			LHM5			RSK2			LFT1			RSK3			RSK4			LLME			RLME			RTOE			RHEEL			RFT1			RFT2			LFT2			
		X1	Y1	Z1	X2	Y2	Z2	X3	Y3	Z3	X4	Y4	Z4	X5	Y5	Z5	X6	Y6	Z6	X7	Y7	Z7	X8	Y8	Z8	X9	Y9	Z9	X10	Y10	Z10	X11	Y11	Z11	X12	Y12	Z12	X13	Y13	Z13	X14	Y14	Z14	X15	Y15	Z15	X16	Y16	Z16	X17	Y17	Z17	X18	Y18	Z18	X19	Y19	Z19	X20	Y20	Z20	X21	Y21	Z21	X22	Y22	Z22	X23	Y23	Z23	X24	Y24	Z24	X25	Y25	Z25	X26	Y26	Z26	X27	Y27	Z27	X28	Y28	Z28	X29	Y29	Z29	X30	Y30	Z30	X31	Y31	Z31	X32	Y32	Z32	X33	Y33	Z33	X34	Y34	Z34	X35	Y35	Z35	X36	Y36	Z36	X37	Y37	Z37	X38	Y38	Z38	X39	Y39	Z39	

165	0.82	-241.2189331054688	1500.012329101562	-445.993408203125	-291.2351989746094	1476.74658203125	-140.3043212890625	-298.8246765136719	1035.585083007812	-444.7732238769531	-280.5016479492188	1025.265258789062	-147.0360107421875	-247.1275329589844	981.8193359375	-434.7364807128906	-811.0161743164062	386.3424072265625	-360.5645751953125	-221.2318115234375	980.199951171875	-178.9003295898438	-396.6235656738281	934.1031494140624	-441.026123046875	-354.41796875	920.9039306640624	-132.7309112548828	-386.304931640625	1071.4560546875	-295.6642150878906	-363.8041381835938	682.8649291992188	-467.3233032226562	-690.0761108398438	474.74951171875	-438.0723876953125	-441.1598510742188	713.2550048828125	-462.9274291992188	-401.1549072265625	587.4469604492188	-455.1177978515625	55.19301605224609	155.6122894287109	-154.1343841552734	-608.7169799804688	530.6823120117188	-454.9913024902344	-478.3573913574219	620.80615234375	-443.0819702148438	-144.9936828613281	686.733642578125	-135.8800048828125	-825.3858642578125	146.2106323242188	-394.6011352539062	-219.2892913818359	660.6307983398438	-123.89453125	-118.5220031738281	593.1664428710938	-168.5002288818359	-195.0221405029297	570.1903686523438	-151.5762329101562	-470.2928466796875	563.8863525390625	-453.6961669921875	-153.4326629638672	546.3814697265625	-154.2901916503906	-565.5595092773438	464.598876953125	-461.8609619140625	-648.5718994140625	409.1409301757812	-453.0959777832031	-93.85976409912108	437.1709899902344	-154.9118499755859	-858.8952026367188	204.2424011230469	-443.7882385253906	-170.493408203125	422.4046936035156	-137.1147308349609	-827.5138549804688	372.0750732421875	-320.5727233886719	-76.02865600585938	336.9926147460938	-163.9684753417969	-153.6049652099609	325.8697814941406	-148.2491149902344	-812.5962524414062	341.6258544921875	-417.46728515625	-79.57698059082031	143.6402130126953	-183.1609039306641	96.59660339355467	196.5571899414062	-217.7478485107422	-129.3677978515625	102.650993347168	-237.4419860839844	-103.5570297241211	84.34573364257812	-268.7231140136719	-117.8198013305664	78.23625946044922	-212.8658294677734	-845.8173217773438	389.1246643066406	-369.5873718261719
166	0.825	-224.6480407714844	1497.593139648438	-444.8743591308594	-274.8988647460938	1473.764892578125	-139.1023559570312	-282.3006286621094	1033.16064453125	-444.5694580078125	-263.9530639648438	1022.539428710938	-146.7017974853516	-230.2308654785156	979.7015380859376	-434.9051513671875	-793.8748779296875	392.1353759765625	-351.9693603515625	-204.3629455566406	977.8114013671876	-178.4221801757812	-379.0251770019531	931.25537109375	-441.0003356933594	-337.7347717285156	917.5155639648438	-132.9524841308594	-369.7686157226562	1068.490112304688	-294.988525390625	-344.9751281738281	680.2648315429688	-467.9678955078125	-671.0880737304688	475.5859069824219	-437.9363708496094	-422.6722412109375	709.6527099609375	-463.7331237792969	-381.0929260253906	584.0650024414062	-455.5324096679688	70.7911148071289	152.4258880615234	-155.1029205322266	-588.7536010742188	529.8146362304688	-454.7927551269531	-459.7737121582031	617.0615234375	-443.6774291992188	-128.776123046875	684.0106811523438	-136.6852722167969	-811.7327270507812	149.6708984375	-395.3355102539062	-202.994384765625	657.2572021484375	-123.8010025024414	-102.6796569824219	590.184326171875	-169.1469268798828	-178.7501373291016	566.9331665039062	-152.3094787597656	-450.2466125488281	560.2957153320312	-454.7775573730469	-137.8741912841797	543.0669555664062	-153.7707366943359	-547.038330078125	462.58349609375	-462.1991577148438	-631.1210327148438	409.2528381347656	-452.6751098632812	-78.02420043945312	434.1639099121094	-154.9703063964844	-845.0620727539062	208.7430725097656	-444.2418212890625	-154.5994567871094	419.1702880859375	-137.0095672607422	-810.1348876953125	374.8106384277344	-319.9302062988281	-59.94184875488281	333.8556518554688	-164.8070373535156	-137.5490264892578	322.2884521484375	-148.3405456542969	-796.5537719726562	344.30712890625	-416.7945251464844	-63.86855697631836	140.1758117675781	-183.9756774902344	111.78173828125	194.1213836669922	-218.4079742431641	-113.9082641601562	99.28145599365234	-238.4848022460938	-88.22306060791016	81.03607940673828	-269.6220397949219	-102.0488815307617	75.21379089355469	-213.4861907958984	-828.358642578125	391.827880859375	-367.19580078125
167	0.83	-208.3038330078125	1494.983520507812	-443.8700561523438	-258.3851013183594	1470.111083984375	-137.9341735839844	-265.1497192382812	1030.256225585938	-444.4376220703125	-247.1114807128906	1019.783752441406	-146.3406829833984	-213.0914306640625	977.1212768554688	-434.5757141113281	-776.4507446289062	394.4537353515625	-350.8141479492188	-187.5458831787109	975.2345581054688	-178.1786041259766	-361.4593811035156	928.2944946289062	-441.3049926757812	-321.0446472167969	914.2402954101562	-132.7236938476562	-353.1471557617188	1065.2744140625	-294.8650207519531	-325.8094482421875	676.9573364257812	-468.0558166503906	-651.7625122070312	476.1282348632812	-437.6971435546875	-404.0935974121094	705.9383544921875	-464.4732360839844	-361.1782531738281	580.8011474609375	-456.4168090820312	85.35900115966797	148.6963500976562	-155.6891174316406	-568.52001953125	528.4330444335938	-454.5464172363281	-440.0789794921875	612.5419921875	-444.1435852050781	-112.9167785644531	680.9619140625	-137.3424072265625	-797.4607543945312	153.1554565429688	-396.7639770507812	-187.0137634277344	654.4344482421875	-124.1003646850586	-86.63064575195312	587.263671875	-170.2070159912109	-162.5613861083984	564.0404663085938	-152.1836853027344	-430.3389282226562	556.6248168945312	-455.5460815429688	-121.8325347900391	539.8710327148438	-154.0887603759766	-528.4389038085938	460.7912902832031	-463.1802062988281	-613.5032348632812	408.5680847167969	-453.0823059082031	-62.46703720092773	430.7052001953125	-155.432861328125	-830.30615234375	212.544921875	-444.5565490722656	-139.0570373535156	415.7852172851562	-137.1738739013672	-792.9442138671875	377.0919189453125	-318.7377014160156	-44.88640975952148	329.9965209960938	-165.2985687255859	-122.6648712158203	318.6444702148438	-148.8118133544922	-780.1412963867188	347.5484924316406	-416.3697509765625	-48.9304313659668	136.7947540283203	-184.5832824707031	126.4256820678711	190.8210906982422	-219.2447814941406	-99.25699615478516	95.72102355957033	-239.2010192871094	-73.53855895996094	77.82707977294922	-270.8938903808594	-87.23662567138672	71.14469146728516	-214.8081817626953	-810.8920288085938	395.2167053222656	-365.9963989257812
168	0.835	-191.6804809570312	1491.723022460938	-442.6382141113281	-241.9241790771484	1466.509643554688	-136.4599456787109	-248.1691131591797	1027.473510742188	-444.15576171875	-230.5042419433594	1016.749755859375	-145.9532623291016	-196.2156677246094	974.3772583007812	-434.1018981933594	-758.8802490234375	397.1719055175781	-349.5965576171875	-170.7977447509766	972.022705078125	-178.0240020751953	-344.3894958496094	924.9021606445312	-441.6009216308594	-304.3301696777344	910.6539916992188	-132.5546875	-336.3619689941406	1061.782836914062	-294.4463806152344	-306.6298522949219	673.6258544921875	-468.491943359375	-632.2736206054688	475.9873657226562	-437.3040771484375	-385.1167297363281	701.8757934570312	-465.1047973632812	-341.0207214355469	576.845458984375	-457.2116394042969	99.48956298828124	144.3208312988281	-156.6813659667969	-547.839111328125	527.099609375	-454.8341064453125	-420.1592407226562	608.44140625	-445.1543273925781	-96.78818511962892	678.1461791992188	-138.9675903320312	-782.440185546875	156.256591796875	-397.0819396972656	-170.6940765380859	651.3306884765625	-124.7564468383789	-70.31806182861328	584.4182739257812	-170.8991088867188	-146.5816192626953	561.0123291015625	-151.7834014892578	-410.4317321777344	552.695068359375	-456.6040649414062	-105.6717681884766	536.5991821289062	-154.6368103027344	-509.3609619140625	458.3947448730469	-463.8735656738281	-595.8569946289062	408.3623657226562	-453.7977905273438	-47.31866073608398	426.5491943359375	-155.9678955078125	-814.8827514648438	216.2978515625	-444.6371459960938	-124.0099029541016	412.2677307128906	-137.6734008789062	-775.2188110351562	379.65380859375	-318.0944213867188	-30.36211013793945	326.4244384765625	-165.9556884765625	-107.6143798828125	314.8573608398438	-149.6913452148438	-762.99072265625	350.3742065429688	-415.6129760742188	-35.02025604248047	132.8114013671875	-185.314208984375	140.3880615234375	186.657958984375	-219.9250183105469	-85.63050079345703	92.20302581787108	-240.7712554931641	-59.44909286499023	74.17227935791016	-271.9709167480469	-73.38543701171875	67.21306610107422	-215.3980102539062	-793.3551025390625	397.8761291503906	-364.999267578125
